<svg xmlns="http://www.w3.org/2000/svg" viewBox="0 0 296.61 47.93"><title>Ativo 1</title><g id="Camada_2" data-name="Camada 2"><g id="OBJECTS"><path d="M296.19,10.55c1.05.6,0,1.79-1.57,1.79-1,0-1.85.84-1.5,1.45a3.23,3.23,0,0,0,1.37.81l1.15.42-.94.43c-1.65.74-2.06,1.2-2,2.15.05.5.1,1.16.11,1.44a1.48,1.48,0,0,0,.55.91c.77.58,0,1.2-1.81,1.43-.76.09-1.42.28-1.42.4s-.47.29-1.09.37a2.13,2.13,0,0,0-1.35.59c-.21.35-.08.41.65.28s.91-.07.88.42a.64.64,0,0,1-.51.63l-.7.08c-.12,0,.22.42.79.92a9.73,9.73,0,0,0,3.52,1.63c1.39.41,2.32.78,2.08.84a.75.75,0,0,0-.44.71c0,.33-.17.66-.36.7s-.42.78-.48,1.61c-.08,1.15-.24,1.48-.65,1.37a4.5,4.5,0,0,0-3.09,1c-.34.38-.34.6,0,.87s.26.41-.55.63c-.62.16-1,.46-1,.78s-.33.65-.77.81-.76.21-.76.12-.33,0-.77.14-.76.43-.76.62-.37.63-.81,1-1.2,1-1.69,1.42c-.89.77-.92.77-2.74.46-1-.17-3.25-.43-5-.58s-4.58-.4-6.33-.57c-3.14-.3-24.37-.38-26.35-.1-1,.15-6.17.3-18.39.52-17,.3-22.49.42-24.71.53-1.27.06-4.8.18-7.86.26s-7.89.27-10.73.42-6.46.31-8,.37c-3,.11-4.05.16-15.51.79-3.79.21-9.48.44-12.64.53s-7,.21-8.45.29c-5.56.28-61.2,0-71.06-.31-2.42-.09-7.44-.21-11.13-.27s-7.57-.17-8.61-.23c-2.75-.17-2.37-.16-11.13-.15-4.41,0-9.92.16-12.24.33s-4.82.3-5.57.28c-3.6-.08,5.59,1.13,9.89,1.31.7,0,1.24.12,1.24.21a3.93,3.93,0,0,0,1.55.2,9,9,0,0,1,1.88.18,20.44,20.44,0,0,0,2.56.29c1.22.08,3.77.31,5.67.51s4.66.44,6.13.54,3.56.33,4.6.51a27.47,27.47,0,0,0,3.45.38,19,19,0,0,1,2.7.27,66.73,66.73,0,0,0,7.26.66c.84,0,2.85.16,4.42.28s3,.2,3.17.18a.27.27,0,0,1,.3.28c0,.26-.68.32-2.8.24a14.53,14.53,0,0,1-3.12-.31,2.64,2.64,0,0,0-1.4,0,3.17,3.17,0,0,1-1.26.09,16.92,16.92,0,0,0-2.61-.27,20,20,0,0,1-3.19-.36,19.69,19.69,0,0,0-2.89-.35c-1.17-.07-3.13-.24-4.41-.39s-3.74-.34-5.53-.44a27.17,27.17,0,0,1-3.63-.34c-.56-.24-1.17-.29-4.13-.34A9.22,9.22,0,0,1,33.07,45a5.26,5.26,0,0,0-2-.14,13.87,13.87,0,0,1-3.32-.3A13.3,13.3,0,0,0,25,44.16a25.32,25.32,0,0,1-2.91-.26c-.86-.14-2.56-.31-3.84-.38s-4-.25-6.13-.4A39.54,39.54,0,0,0,7.29,43c-.87.13-1,.07-1-.37,0-.7-.62-.94-2.52-1S.55,41.16.12,40.39s.13-1.23,1-1.23c.29,0,.41-.16.29-.39a.46.46,0,0,0-.55-.25c-.55.23-.39-.24.37-1.09s.66-.81,0-1.81c-.46-.7-.55-1.1-.27-1.22s.31-.3.15-.47,0-.3.42-.3A1.58,1.58,0,0,0,2.64,33c.48-.7.17-1-.77-.76-.4.11-.62,0-.62-.25a.39.39,0,0,0-.38-.41c-.22,0-.39-.12-.39-.27S.9,31,1.45,31s1-.16,1-.4-.24-.4-.55-.4c-.91,0-1.14-.52-.4-.9S2,28.12,1,28.12c-.57,0-.57-.05,0-.68a1.35,1.35,0,0,0,.41-1.33c-.34-.94.38-1.62,1.91-1.82.73-.1,1.35-.29,1.35-.41s.58-.22,1.31-.22c1.57,0,2.56-.24,2.28-.55-.11-.13-.58-.13-1.06,0a2.31,2.31,0,0,1-1.77-.24,3.2,3.2,0,0,0-1.67-.33c-.52.09-.68,0-.5-.17a.55.55,0,0,1,.57-.19,1.3,1.3,0,0,0,.84-.13c.45-.2.4-.27-.29-.41S3.66,21.39,4,21s.24-.59-.31-.87-.61-.47-.28-.84,1-.61,3.8-1l1.13-.17-.84-.46c-.47-.26-.73-.54-.6-.63s0-.17-.31-.17c-.44,0-.45-.06,0-.24,1-.41-.51-.54-1.64-.14-1.42.5-2.13.48-1.06,0a11.1,11.1,0,0,1,3-.57,6.27,6.27,0,0,0,3.45-1c.73-.45,1.34-1,1.34-1.15a2,2,0,0,1,.56-.93c.71-.75.27-1.1-1.66-1.3-1.61-.17-2-.41-1.09-.75a1,1,0,0,0,.65-.75c0-.29.33-.62.77-.78,1-.35,1-.78,0-.78-1.43,0-1.17-.47.58-1a38.64,38.64,0,0,1,9.49-1.07c1.28,0,2.13-.12,2-.25s.09-.36.45-.5.53-.37.35-.49c-.42-.29-7.52-.27-8.39,0-.48.16-.66.1-.66-.22s.15-.37.35-.29a1,1,0,0,0,.86-.2,5.19,5.19,0,0,1,1.56-.54c.59-.1,1.06-.33,1.06-.51s.15-.18.39.07.44.34.71,0,.73-.31,1.64-.2a3.65,3.65,0,0,0,1.61,0c.53-.36,7.11-.88,15.94-1.25,2.23-.1,4.78-.23,5.73-.29,1.82-.12,43-.09,46,0,1,0,4.89.08,8.8.08h7.48c4.92.23,47.91.39,48.39.19.2-.08,4.23-.22,8.94-.3s9.91-.24,11.53-.34c3-.2,3.83.08.95.32s-9.09.48-13.69.52-5.47.18-5.11.82c.17.31.92.4,3,.4,2.5,0,16.5-.55,23.18-.92,2.33-.12,19.39-.63,20.65-.61l9.78-.16c17.3-.3,44.67-.39,44.67-.13a13.3,13.3,0,0,0,3.65.25,24.29,24.29,0,0,1,4.4.27,29.59,29.59,0,0,0,4.67.43,19,19,0,0,1,4.05.39,2.65,2.65,0,0,0,1.35.23,23.1,23.1,0,0,1,3.28.38c1.14.21,2.17.36,2.3.35A8.21,8.21,0,0,1,284,4c.53.09,2,.29,3.25.46,1.9.25,2.15.34,1.44.53s-.86.42-.85,1c0,1,.65,1.48,2.91,2.15a6.14,6.14,0,0,1,2.45,1.21,2.73,2.73,0,0,0,1.47.8A5.61,5.61,0,0,1,296.19,10.55ZM277.36,4.2c.11,0,.18-.12.18-.27s-.2-.26-.42-.26-.3.13-.18.26A.79.79,0,0,0,277.36,4.2Zm-257,0c.25.18.54.26.64.19.26-.18-.18-.5-.7-.5C20,3.92,20,4,20.32,4.23Z"/><path d="M222.89,0c-.43,0-.53.07-.23.15a1.16,1.16,0,0,0,.75,0C223.53.06,223.3,0,222.89,0Z"/><path d="M213.32,0c-.44,0-.54.07-.24.15a1.18,1.18,0,0,0,.73,0C213.94.06,213.72,0,213.32,0Z"/><path d="M187.86.81c-.55,0-.75.06-.47.13a2.58,2.58,0,0,0,1,0C188.62.87,188.41.81,187.86.81Z"/><path d="M181,1.05a3.27,3.27,0,0,0-1.15.25c-.7.31-.11.31.95,0C181.27,1.14,181.34,1.06,181,1.05Z"/><path d="M71.92,47.6c-.44,0-.54.08-.24.17a1.13,1.13,0,0,0,.75,0C72.56,47.65,72.32,47.59,71.92,47.6Z"/></g></g></svg>